Release Group: decibeL
Container: MKV
Format: x264
Resolution: 1080p
Source Media: Blu-Ray
Audio Format: DTS
Audio Channels: 6
Audio Bitrate: 1510
Subtitles English,Spanish

General
Complete Name : Boondock.Saints.Director's.Cut.1999.BluRay.1080p.DTS.x264.dxva-decibeL.mkv
Format : Matroska
File Size : 11.2 GiB
Duration : 1h 48mn
Overall bit rate : 14.8 Mbps
Encoded date : UTC 2010-07-21 20:03:46
Writing application : mkvmerge v4.0.0 ('The Stars were mine') built on Jun 6 2010 16:18:42
Writing library : libebml v1.0.0 + libmatroska v1.0.0

Video
ID : 1
Format : AVC
Format/Info : Advanced Video Codec
Format profile : High@L4.1
Format settings, CABAC : Yes
Format settings, ReFrames : 4 frames
Muxing mode : Container profile=Unknown@4.1
Codec ID : V_MPEG4/ISO/AVC
Duration : 1h 48mn
Bit rate : 12.9 Mbps
Width: 1 920 pixels
Height: 814 pixels
Display aspect ratio : 2.35:1
Frame Rate: 23.976 fps
Color space : YUV
Chroma subsampling : 4:2:0
Bit depth : 8 bits
Scan Type : Progressive
Bits/(Pixel*Frame) : 0.345
Stream size : 9.56 GiB (85%)
Writing library : x264 core 98 r1649 20cbe10
Encoding settings : cabac=1 / ref=5 / deblock=1:-3:-3 / analyse=0x3:0x113 / me=umh / subme=10 / psy=1 / psy_rd=1.00:0.00 / mixed_ref=1 / me_range=64 / chroma_me=1 / trellis=2 / 8x8dct=1 / cqm=0 / deadzone=21,11 / fast_pskip=1 / chroma_qp_offset=-2 / threads=6 / sliced_threads=0 / nr=0 / decimate=1 / interlaced=0 / constrained_intra=0 / bframes=8 /b_pyramid=1 / b_adapt=2 / b_bias=0 / direct=2 / weightb=1 / weightp=2 / keyint=250 / keyint_min=25 / scenecut=40 / intra_refresh=0 / rc_lookahead=50 / rc=2pass / mbtree=1 / bitrate=12930 / ratetol=1.0 / qcomp=0.80 / qpmin=10 / qpmax=51 / qpstep=4 / cplxblur=20.0 / qblur=0.5 / vbv_maxrate=38000 / vbv_bufsize=30000 / ip_ratio=1.40 / aq=1:1.00 / nal_hrd=none
Language : English

Audio #1
ID : 2
Format : DTS
Format/Info : Digital Theater Systems
Codec ID : A_DTS
Duration : 1h 48mn
Bit rate mode : Constant
Bit Rate : 1 510 Kbps
Channel(s): 6 channels
Channel positions : Front: L C R, Side: L R, LFE
Sampling rate : 48.0 KHz
Bit depth : 24 bits
Stream size : 1.14 GiB (10%)
Language : English

Audio #2
ID : 3
Format : AC-3
Format/Info : Audio Coding 3
Mode extension : CM (complete main)
Codec ID : A_AC3
Duration : 1h 48mn
Bit rate mode : Constant
Bit rate : 192 Kbps
Channel(s) : 2 channels
Channel positions : Front: L R
Sampling rate : 48.0 KHz
Bit depth : 16 bits
Stream size : 149 MiB (1%)
Title : Audio Commentary with director Troy Duffy
Language : English

Audio #3
ID : 4
Format : AC-3
Format/Info : Audio Coding 3
Mode extension : CM (complete main)
Codec ID : A_AC3
Duration : 1h 48mn
Bit rate mode : Constant
Bit rate : 192 Kbps
Channel(s) : 2 channels
Channel positions : Front: L R
Sampling rate : 48.0 KHz
Bit depth : 16 bits
Stream size : 149 MiB (1%)
Title : Audio Commentary with actor Bill Connelly
Language : English

Text #1
ID : 5
Format : UTF-8
Codec ID : S_TEXT/UTF8
Codec ID/Info : UTF-8 Plain Tex
Language : English


Text #2
ID : 6
Format : UTF-8
Codec ID : S_TEXT/UTF8
Codec ID/Info : UTF-8 Plain Tex
Language : Spanish


Menu & Chapters

 
http://www.imagebam.com/image/41e71b117996030
 
http://www.imagebam.com/image/80a285117996062
 
http://www.imagebam.com/image/5de0f4117996081
 
http://www.imagebam.com/image/83d20d117996116